<?xml version="1.0" encoding="UTF-8"?>
<svg width="48" height="48" version="1.1" xml:space="preserve" xmlns="http://www.w3.org/2000/svg" xmlns:xlink="http://www.w3.org/1999/xlink"><defs><linearGradient id="a" x1="47" x2="53.816" y1="17" y2="23.816" gradientTransform="translate(360.57 509.92)" gradientUnits="userSpaceOnUse"><stop stop-color="#060606" offset="0"/><stop stop-opacity="0" offset="1"/></linearGradient><linearGradient id="b" x2="0" y1="392.36" y2="320.48" gradientTransform="matrix(.5 0 0 .42294 378.57 378.93)" gradientUnits="userSpaceOnUse"><stop stop-color="#fff" stop-opacity="0" offset="0"/><stop stop-color="#fff" stop-opacity=".2" offset="1"/></linearGradient><path id="c" d="m386.57 545.8v-25h21l7 7v18h-7z" color="#000000" color-rendering="auto" image-rendering="auto" shape-rendering="auto" text-rendering="auto"/><style id="current-color-scheme" type="text/css">
      .ColorScheme-Text {
        color:#232629;
      }
      </style><style type="text/css">
      .ColorScheme-Text {
        color:#232629;
      }
      </style><style type="text/css">.ColorScheme-Text { color: #fcfcfc; } </style><style type="text/css">.ColorScheme-Accent { color: #3daee9; } .ColorScheme-Text { color: #fcfcfc; } </style></defs><g transform="matrix(1.5 0 0 1.5 -577.07 -777.08)"><g transform="translate(.14504 1.4538)"><use transform="matrix(1 0 0 1.056 0 -30.583)" fill="#0a8399" xlink:href="#c"/><g transform="matrix(1 0 0 1.056 0 -30.583)" color="#000000" color-rendering="auto" image-rendering="auto" shape-rendering="auto" text-rendering="auto"><rect x="386.57" y="544.8" width="28" height="1" opacity=".25"/><g fill="#fff"><rect x="386.57" y="520.8" width="21" height="1" opacity=".5"/></g></g><g transform="matrix(.9439 0 0 .9439 393.25 528.07)"><path class="ColorScheme-Text" d="m6.616-0.17771v1.4592h14.592v-1.4592zm0 2.9185v1.4592h8.7554v-1.4592zm-4.6378 7.9559v1.4592h10.821v-1.4592zm2.1658-5.1307v1.4592h8.7554v-1.4592z" fill="#fcfcfc"/><path class="ColorScheme-Accent" d="m16.831 2.7408v1.4592h1.4592v-1.4592zm2.9185 0v1.4592h1.4592v-1.4592zm-5.837 7.9082v1.4592h1.4592v-1.4592zm2.9185 0v1.4592h1.4592v-1.4592zm2.9185 0v1.4592h1.4592v-1.4592zm-5.837-5.0853v1.4592h1.4592v-1.4592zm2.9185 0v1.4592h1.4592v-1.4592zm2.9185 0v1.4592h1.4592v-1.4592z" fill="#3daee9"/></g><g transform="matrix(1 0 0 1.056 0 -30.583)" fill-rule="evenodd"><path d="m414.57 526.92-7-6.1156v6.1156z" fill="#fff" opacity=".5" stroke-width=".9347"/><path d="m407.57 526.92 7 7v-6.1156l-0.87047-0.87047z" fill="url(#a)" opacity=".2"/></g></g><g transform="matrix(-.04542 0 0 .04542 406.92 522.91)"><rect x="120.64" y="71.204" width="117.34" height="234.69" fill="#ffaed9"/><g fill="#ff1b95">
	<path d="m237.98 320.94h-117.34c-8.309 0-15.044-6.735-15.044-15.044v-234.69c0-8.309 6.735-15.044 15.044-15.044h117.34c8.309 0 15.044 6.735 15.044 15.044v234.69c0 8.308-6.735 15.045-15.044 15.045zm-102.3-30.088h87.256v-204.6h-87.256z"/>
	<path d="m243.17 446.81h-126.37c-8.309 0-15.044-6.735-15.044-15.044s6.735-15.044 15.044-15.044h126.37c8.309 0 15.044 6.735 15.044 15.044s-6.735 15.044-15.044 15.044z"/>
	<path d="m314.37 446.81h-9.478c-8.309 0-15.044-6.735-15.044-15.044s6.735-15.044 15.044-15.044h9.478c49.641 0 90.026-40.386 90.026-90.026s-40.386-90.026-90.026-90.026h-88.18c-8.309 0-15.044-6.735-15.044-15.044s6.735-15.044 15.044-15.044h88.18c66.23 0 120.11 53.882 120.11 120.11s-53.883 120.11-120.11 120.11z"/>
</g><circle cx="228.11" cy="217.61" r="52.654" fill="#ffaed9"/><g fill="#ff1b95">
	<path d="m228.12 285.31c-37.329 0-67.699-30.37-67.699-67.699s30.37-67.699 67.699-67.699 67.699 30.37 67.699 67.699-30.37 67.699-67.699 67.699zm0-105.31c-20.738 0-37.61 16.872-37.61 37.61s16.872 37.61 37.61 37.61 37.61-16.872 37.61-37.61-16.871-37.61-37.61-37.61z"/>
	<path d="m266.06 320.94h-173.51c-8.309 0-15.044-6.735-15.044-15.044s6.735-15.044 15.044-15.044h173.51c8.309 0 15.044 6.735 15.044 15.044s-6.736 15.044-15.044 15.044z"/>
	
</g><rect x="147.22" y="15.044" width="64.189" height="56.16" fill="#ffaed9"/><g fill="#ff1b95">
	<path d="m211.4 86.253h-64.189c-8.309 0-15.044-6.735-15.044-15.044v-56.165c0-8.309 6.735-15.044 15.044-15.044h64.189c8.309 0 15.044 6.735 15.044 15.044v56.164c0 8.308-6.735 15.045-15.044 15.045zm-49.145-30.089h34.101v-26.076h-34.101z"/>
	<path d="m243.17 504.98c-8.309 0-15.044-6.735-15.044-15.044v-58.168c0-8.309 6.735-15.044 15.044-15.044s15.044 6.735 15.044 15.044v58.168c1e-3 8.309-6.735 15.044-15.044 15.044z"/>
	<path d="m282.66 512h-78.982c-8.309 0-15.044-6.735-15.044-15.044s6.735-15.044 15.044-15.044h78.982c8.309 0 15.044 6.735 15.044 15.044s-6.735 15.044-15.044 15.044z"/>
</g></g><use transform="matrix(1 0 0 1.056 .14333 -29.111)" fill="url(#b)" xlink:href="#c"/></g></svg>
