<?xml version="1.0" encoding="UTF-8" standalone="no"?>
<svg
   width="48"
   height="48"
   version="1.1"
   xml:space="preserve"
   id="svg26"
   sodipodi:docname="omerewriter.svg"
   inkscape:version="1.4.2 (ebf0e940d0, 2025-05-08)"
   xmlns:inkscape="http://www.inkscape.org/namespaces/inkscape"
   xmlns:sodipodi="http://sodipodi.sourceforge.net/DTD/sodipodi-0.dtd"
   xmlns:xlink="http://www.w3.org/1999/xlink"
   xmlns="http://www.w3.org/2000/svg"
   xmlns:svg="http://www.w3.org/2000/svg"><sodipodi:namedview
     id="namedview26"
     pagecolor="#ffffff"
     bordercolor="#999999"
     borderopacity="1"
     inkscape:showpageshadow="2"
     inkscape:pageopacity="0"
     inkscape:pagecheckerboard="0"
     inkscape:deskcolor="#d1d1d1"
     inkscape:zoom="12.114583"
     inkscape:cx="5.6956148"
     inkscape:cy="40.818573"
     inkscape:window-width="2560"
     inkscape:window-height="1376"
     inkscape:window-x="0"
     inkscape:window-y="0"
     inkscape:window-maximized="1"
     inkscape:current-layer="g26" /><defs
     id="defs6"><linearGradient
       id="a"
       x1="47"
       x2="54"
       y1="17"
       y2="24"
       gradientTransform="translate(360.57,510.8)"
       gradientUnits="userSpaceOnUse"><stop
         stop-color="#060606"
         offset="0"
         id="stop1" /><stop
         stop-opacity="0"
         offset="1"
         id="stop2" /></linearGradient><linearGradient
       id="b"
       x2="0"
       y1="392.36"
       y2="320.48"
       gradientTransform="matrix(0.5,0,0,0.42294,378.57,378.93)"
       gradientUnits="userSpaceOnUse"><stop
         stop-color="#fff"
         stop-opacity="0"
         offset="0"
         id="stop3" /><stop
         stop-color="#fff"
         stop-opacity=".2"
         offset="1"
         id="stop4" /></linearGradient><path
       id="c"
       d="m386.57 545.8v-25h21l7 7v18h-7z"
       color="#000000"
       color-rendering="auto"
       image-rendering="auto"
       shape-rendering="auto"
       text-rendering="auto" /><style
       id="current-color-scheme"
       type="text/css">
      .ColorScheme-Text {
        color:#232629;
      }
      </style><style
       type="text/css"
       id="style4">
      .ColorScheme-Text {
        color:#232629;
      }
      </style><style
       type="text/css"
       id="style5">.ColorScheme-Text { color: #fcfcfc; } </style><style
       type="text/css"
       id="style6">.ColorScheme-Accent { color: #3daee9; } .ColorScheme-Text { color: #fcfcfc; } </style></defs><g
     transform="matrix(1.5 0 0 1.5 -577.07 -777.08)"
     id="g26"><g
       transform="translate(.14504 1.4538)"
       id="g25"><use
         transform="matrix(1 0 0 1.056 0 -30.583)"
         fill="#0a076b"
         xlink:href="#c"
         id="use6" /><g
         transform="matrix(1 0 0 1.056 0 -30.583)"
         fill-rule="evenodd"
         id="g7"><path
           d="m414.57 527.8-7-7v7z"
           fill="#fff"
           opacity=".5"
           id="path6" /><path
           d="m407.57 527.8 7 7v-7z"
           fill="url(#a)"
           opacity=".2"
           id="path7" /></g><g
         transform="matrix(1 0 0 1.056 0 -30.583)"
         color="#000000"
         color-rendering="auto"
         image-rendering="auto"
         shape-rendering="auto"
         text-rendering="auto"
         id="g9"><rect
           x="386.57"
           y="544.8"
           width="28"
           height="1"
           opacity=".25"
           id="rect7" /><g
           fill="#fff"
           id="g8"><rect
             x="386.57"
             y="520.8"
             width="21"
             height="1"
             opacity=".5"
             id="rect8" /></g></g><g
         transform="matrix(.98022 0 0 .98022 392.33 528.41)"
         fill="currentColor"
         id="g10"><path
           class="ColorScheme-Text"
           d="m6.616-0.17771v1.4592h14.592v-1.4592zm0 2.9185v1.4592h8.7554v-1.4592zm0 5.837v1.4592h11.674v-1.4592zm0 2.9185v1.4592h5.837v-1.4592z"
           id="path9"
           style="fill:#fcfcfc;fill-opacity:1;stroke:none;stroke-opacity:1" /><path
           class="ColorScheme-Accent"
           d="m16.831 2.7408v1.4592h1.4592v-1.4592zm2.9185 0v1.4592h1.4592v-1.4592zm-5.837 8.7554v1.4592h1.4592v-1.4592zm2.9185 0v1.4592h1.4592v-1.4592zm2.9185 0v1.4592h1.4592v-1.4592z"
           id="path10"
           style="fill:#3daee9;fill-opacity:1" /></g><g
         transform="matrix(.53959 0 0 .53959 383.78 520.54)"
         id="g24"><path
           d="m12.628 39h24.743c1.4515 0 2.6283 1.3432 2.6283 3s-1.1768 3-2.6283 3h-24.743c-1.4515 0-2.6283-1.3432-2.6283-3 0-1.6569 1.1767-3 2.6283-3z"
           opacity=".2"
           id="path11" /><path
           d="m23.043 26.576c0.08939-0.33829 0.31143-0.62782 0.61743-0.80487l4.477-2.5897c0.63705-0.36852 1.4573-0.1586 1.8316 0.46904l2.8465 4.7739c0.37415 0.62773 0.16102 1.4353-0.47621 1.804l-4.477 2.5897c-0.27593 0.15957-0.58602 0.21071-0.87944 0.16651-0.38423-0.058-0.73991-0.2796-0.95214-0.63555l-2.8465-4.7738c-0.17976-0.30139-0.23052-0.66085-0.14122-0.99914z"
           opacity=".2"
           id="path12" /><path
           d="m18.719 10.746c-0.65189-0.01444-1.3099 0.22063-1.8184 0.70703l-4.3574 4.168c-5.873 5.6184-6.0794 14.967-0.46094 20.84l1.4727 1.5391h7.0508l-4.8418-5.0625c-3.676-3.8426-3.5399-9.9587 0.30273-13.635l4.3574-4.168c1.0168-0.97272 1.0509-2.5847 0.07813-3.6016-0.4864-0.5084-1.1313-0.77267-1.7832-0.78711z"
           opacity=".2"
           id="path13" /><path
           d="m21.34 43.5h15.379c1.4071 0 2.5479-0.6408 2.5479-2.0479s-1.1408-2.5479-2.5479-2.5479h-14.29l-6.6638-6.9658c-3.676-3.8426-3.5405-9.9595 0.30219-13.636l4.3564-4.1675c1.0168-0.97272 1.0526-2.5856 0.07975-3.6025-0.97281-1.0168-2.5855-1.0526-3.6025-0.07975l-4.3564 4.1675c-5.873 5.6184-6.0802 14.968-0.46169 20.841l7.4163 7.7524c0.48071 0.50245 1.1458 0.28664 1.8411 0.28664z"
           fill="#3f3f3f"
           id="path14" /><path
           d="m23.043 25.576c0.08939-0.33829 0.31143-0.62782 0.61743-0.80487l4.477-2.5897c0.63705-0.36852 1.4573-0.1586 1.8316 0.46904l2.8465 4.7739c0.37415 0.62773 0.16102 1.4353-0.47621 1.804l-4.477 2.5897c-0.27593 0.15957-0.58602 0.21071-0.87944 0.16651-0.38423-0.058-0.73991-0.2796-0.95214-0.63555l-2.8465-4.7738c-0.17976-0.30139-0.23052-0.66085-0.14122-0.99914z"
           fill="#4f4f4f"
           id="path15" /><path
           d="m12.139 10.251c0.28572-1.1197 0.98223-2.059 1.9613-2.645l3.3577-2.0094c0.84024-0.50276 1.8326-0.69697 2.7943-0.54688 1.2709 0.19835 2.3729 0.95946 3.0236 2.0883l8.5531 14.84c0.1672 0.28996 0.2144 0.63561 0.13129 0.96098-0.08302 0.32537-0.28945 0.60384-0.57401 0.77413l-8.5428 5.1124c-0.25653 0.15347-0.54482 0.20266-0.8176 0.16015-0.35722-0.05578-0.68789-0.26892-0.8852-0.61127l-8.5531-14.84c-0.57501-0.99775-0.73433-2.1638-0.44861-3.2834z"
           opacity=".2"
           id="path16" /><path
           d="m12.139 9.2507c0.28572-1.1197 0.98223-2.059 1.9613-2.645l3.3577-2.0094c0.84024-0.50276 1.8326-0.69697 2.7943-0.54688 1.2709 0.19835 2.3729 0.95946 3.0236 2.0883l8.5531 14.84c0.1672 0.28996 0.2144 0.63561 0.13129 0.96098-0.08302 0.32537-0.28945 0.60384-0.57401 0.77413l-8.5428 5.1124c-0.25653 0.15347-0.54482 0.20266-0.8176 0.16015-0.35722-0.05578-0.68789-0.26892-0.8852-0.61127l-8.5531-14.84c-0.57501-0.99775-0.73433-2.1638-0.44861-3.2834z"
           fill="#8f32ff"
           id="path17" /><path
           d="m12.628 38h24.743c1.4515 0 2.6283 1.3432 2.6283 3s-1.1768 3-2.6283 3h-24.743c-1.4515 0-2.6283-1.3432-2.6283-3 0-1.6569 1.1767-3 2.6283-3z"
           fill="#8f32ff"
           id="path18" /><path
           d="m15 23c3.3084 0 6-2.6916 6-6s-2.6916-6-6-6-6 2.6916-6 6 2.6916 6 6 6z"
           opacity=".2"
           id="path19" /><path
           d="m15 22c3.3084 0 6-2.6916 6-6s-2.6916-6-6-6-6 2.6916-6 6 2.6916 6 6 6z"
           fill="#4f4f4f"
           id="path20" /><path
           d="m15 14c1.6542 0 3 1.3458 3 3s-1.3458 3-3 3-3-1.3458-3-3 1.3458-3 3-3z"
           opacity=".2"
           id="path21" /><path
           d="m15 13c1.6542 0 3 1.3458 3 3s-1.3458 3-3 3-3-1.3458-3-3 1.3458-3 3-3z"
           fill="#e4e4e4"
           id="path22" /><path
           d="m19.527 4c-0.72422 0.014867-1.4401 0.21863-2.0703 0.5957l-3.3574 2.0098c-0.97908 0.58592-1.6752 1.5248-1.9609 2.6445-0.13905 0.54491-0.16798 1.1005-0.09961 1.6426 0.02236-0.21457 0.04533-0.42988 0.09961-0.64258 0.28572-1.1197 0.98185-2.0586 1.9609-2.6445l3.3574-2.0098c0.84024-0.50276 1.8332-0.69697 2.7949-0.54688 1.2709 0.19835 2.3728 0.96102 3.0234 2.0898l8.5527 14.84c0.02448 0.04246 0.02757 0.09211 0.04687 0.13672 0.02571-0.06018 0.06757-0.11146 0.08398-0.17578 0.0831-0.32537 0.03634-0.67098-0.13086-0.96094l-8.5527-14.84c-0.65065-1.1288-1.7526-1.8915-3.0234-2.0898-0.24044-0.037523-0.4832-0.053784-0.72461-0.048828z"
           fill="#fff"
           opacity=".2"
           id="path23" /><path
           d="m12.629 38c-1.4516 0-2.6289 1.3431-2.6289 3 0 0.17101 0.01889 0.33681 0.04297 0.5 0.20922-1.418 1.2842-2.5 2.5859-2.5h24.742c1.3017 0 2.3767 1.0821 2.5859 2.5 0.024081-0.16319 0.042968-0.32899 0.042968-0.5 0-1.6568-1.1774-3-2.6289-3h-13.879z"
           fill="#fff"
           opacity=".2"
           id="path24" /></g></g><use
       transform="matrix(1,0,0,1.056,0.14333333,-29.111467)"
       fill="url(#b)"
       xlink:href="#c"
       id="use25"
       style="fill:url(#b)" /></g></svg>
